<svg width="46" height="46" viewBox="0 0 46 46" fill="none" xmlns="http://www.w3.org/2000/svg">
<path d="M34.5 18.6875H31.625C31.6239 17.5441 31.1691 16.4479 30.3606 15.6394C29.5521 14.8309 28.4559 14.3761 27.3125 14.375V11.5C29.218 11.5023 31.0449 12.2603 32.3923 13.6077C33.7397 14.9551 34.4977 16.782 34.5 18.6875Z" fill="#BDBDBD"/>
<path d="M40.25 18.6875H37.375C37.372 16.0197 36.3108 13.462 34.4244 11.5756C32.538 9.68917 29.9803 8.62804 27.3125 8.625V5.75C30.7426 5.7538 34.0311 7.11808 36.4565 9.54351C38.8819 11.9689 40.2462 15.2574 40.25 18.6875Z" fill="#BDBDBD"/>
<path d="M29.2287 30.8804L32.4487 27.6604C32.8797 27.2293 33.4278 26.9341 34.0249 26.8114C34.6221 26.6888 35.2421 26.7441 35.8082 26.9704L39.7297 28.5401C40.3076 28.7714 40.8031 29.1705 41.1521 29.6861C41.501 30.2016 41.6875 30.8098 41.6875 31.4324V38.5638C41.6885 38.9877 41.603 39.4073 41.4363 39.797C41.2695 40.1866 41.0249 40.5382 40.7176 40.8301C40.4102 41.1219 40.0465 41.348 39.6488 41.4945C39.251 41.6409 38.8275 41.7046 38.4043 41.6818C10.9164 39.9711 5.36478 16.6894 4.33409 7.77401C4.28417 7.33816 4.32709 6.89667 4.46003 6.47859C4.59298 6.06051 4.81292 5.67532 5.10541 5.34834C5.3979 5.02136 5.7563 4.76001 6.15703 4.58148C6.55777 4.40295 6.99176 4.31129 7.43046 4.31251H14.4354C15.0579 4.31249 15.6662 4.499 16.1817 4.84798C16.6973 5.19696 17.0964 5.6924 17.3277 6.27039L18.896 10.1919C19.1223 10.7579 19.1776 11.378 19.0549 11.9751C18.9323 12.5723 18.6371 13.1203 18.206 13.5513L14.986 16.7713C14.986 16.7713 16.7713 29.3236 29.2287 30.8804Z" fill="#BDBDBD"/>
</svg>
