<svg width="36" height="35" viewBox="0 0 36 35" fill="none" xmlns="http://www.w3.org/2000/svg">
<path d="M0.750191 12.9154C0.745437 13.2068 0.829364 13.4928 0.990844 13.7354C1.15232 13.978 1.38373 14.1658 1.65438 14.2738L15.4558 19.7953L20.9773 33.5981C21.0839 33.8651 21.2682 34.094 21.5062 34.2552C21.7443 34.4163 22.0252 34.5024 22.3127 34.5023H22.3357C22.6268 34.4978 22.9097 34.4049 23.1469 34.236C23.3841 34.067 23.5644 33.8301 23.6639 33.5565L35.1639 1.93146C35.2581 1.67419 35.2767 1.39537 35.2177 1.12784C35.1587 0.860316 35.0245 0.615224 34.8308 0.421431C34.6372 0.227638 34.3922 0.093214 34.1247 0.0339908C33.8573 -0.0252324 33.5784 -0.00678852 33.3211 0.0871498L1.69607 11.5871C1.42232 11.687 1.18532 11.8675 1.01642 12.105C0.847523 12.3424 0.754687 12.6255 0.750191 12.9168V12.9154Z" fill="#BDBDBD"/>
</svg>
