<svg width="40" height="26" viewBox="0 0 40 26" fill="none" xmlns="http://www.w3.org/2000/svg">
<path d="M1.27556 2.78633L17.9422 11.5158C18.5022 11.8083 19.2267 11.947 19.9556 11.947C20.6844 11.947 21.4089 11.8083 21.9689 11.5158L38.6356 2.78633C39.7222 2.2165 40.7489 0 38.7556 0H1.15778C-0.835552 0 0.191115 2.2165 1.27556 2.78633ZM39.14 7.5595L21.9689 16.2847C21.2133 16.6703 20.6844 16.7158 19.9556 16.7158C19.2267 16.7158 18.6978 16.6703 17.9422 16.2847C17.1867 15.899 2.09111 8.1835 0.857781 7.55733C-0.0088852 7.11533 3.59124e-06 7.63317 3.59124e-06 8.03183V23.8333C3.59124e-06 24.7433 1.25778 26 2.22223 26H37.7778C38.7422 26 40 24.7433 40 23.8333V8.034C40 7.63533 40.0089 7.1175 39.14 7.5595Z" fill="#BDBDBD"/>
</svg>
